<svg width="762" height="339" viewBox="0 0 762 339" fill="none" xmlns="http://www.w3.org/2000/svg">
<g clip-path="url(#clip0_14_36)">
<path d="M761.05 295.04C760.85 289.16 758.21 283.68 753.79 279.85L709.81 241.75C700.57 233.7 700.04 219.5 708.69 210.85L715.16 204.38C721.61 197.93 726.9 190.52 730.92 182.51C736.77 170.85 739.93 157.89 739.93 144.63V142.85C739.93 140.8 739.86 138.76 739.73 136.78C739.73 136.78 739.71 136.78 739.7 136.79C738.77 123.89 734.9 111.48 728.5 100.39V100.32L575.6 253.21C578.12 257.16 579.47 261.73 579.47 266.46V307.58C579.47 310.57 578.91 313.54 577.85 316.32C586.84 315.22 595.56 312.69 603.68 308.85C612.38 304.74 620.4 299.13 627.34 292.2L633.81 285.73C642.46 277.08 656.66 277.61 664.71 286.85L702.81 330.83C706.64 335.25 712.12 337.89 718 338.09C718.26 338.09 718.52 338.09 718.78 338.09C718.88 338.09 718.99 338.09 719.09 338.09C724.58 337.99 729.81 335.78 733.72 331.87L744.6 320.98L754.84 310.74C758.74 306.84 760.96 301.6 761.06 296.11C761.06 295.75 761.06 295.38 761.06 295.02L761.05 295.04Z" fill="white"/>
<path d="M505.55 189.03C527.31 189.03 546.49 196.53 562.58 211.32L563.38 212.06L564.1 212.88C567.97 217.31 570.14 222.92 570.25 228.73L620.58 178.39L715.56 83.41L715.16 83.01L675.47 43.33C662.04 29.9 646.67 19.59 630.26 12.41C630.26 12.41 630.26 12.4 630.27 12.39C629.47 12.04 628.65 11.72 627.85 11.38C627.33 11.16 626.81 10.94 626.29 10.73C625.45 10.39 624.6 10.06 623.76 9.73999C623.14 9.49999 622.52 9.26999 621.89 9.04999C620.65 8.59999 619.41 8.15999 618.17 7.73999C617.41 7.47999 616.65 7.22999 615.89 6.98999C615.13 6.74999 614.37 6.50999 613.61 6.28999C612.74 6.02999 611.87 5.77999 610.99 5.52999C610.02 5.25999 609.05 4.99999 608.08 4.73999C607.14 4.49999 606.19 4.25999 605.24 4.02999C604.58 3.86999 603.92 3.71999 603.26 3.56999C601.99 3.28999 600.71 3.01999 599.44 2.75999C598.87 2.64999 598.3 2.54999 597.73 2.43999C596.63 2.23999 595.52 2.04999 594.41 1.86999C593.86 1.77999 593.31 1.68999 592.76 1.60999C591.3 1.38999 589.84 1.18999 588.38 1.01999C587.98 0.96999 587.57 0.92999 587.17 0.88999C585.93 0.74999 584.69 0.62999 583.44 0.52999C583 0.48999 582.56 0.44999 582.12 0.41999C580.59 0.29999 579.05 0.20999 577.51 0.13999C577.16 0.11999 576.81 0.11999 576.46 0.0999902C575.1 0.0499902 573.75 0.0199902 572.39 -9.76585e-06C572.06 -9.76585e-06 571.73 -0.0100098 571.4 -0.0100098C569.81 -0.0100098 568.22 0.00999024 566.63 0.0499902C566.31 0.0499902 565.98 0.0699902 565.66 0.0899902C564.21 0.13999 562.76 0.20999 561.31 0.29999C561.09 0.30999 560.87 0.31999 560.65 0.33999C559.03 0.44999 557.41 0.58999 555.8 0.75999C555.48 0.78999 555.17 0.82999 554.85 0.85999C553.32 1.02999 551.79 1.20999 550.26 1.41999C550.14 1.43999 550.02 1.44999 549.9 1.46999C548.28 1.69999 546.66 1.96999 545.04 2.24999C544.71 2.30999 544.39 2.36999 544.06 2.42999C542.45 2.72999 540.84 3.03999 539.24 3.38999C539.24 3.38999 539.23 3.38999 539.22 3.38999C537.61 3.73999 536.02 4.12999 534.42 4.52999C534.07 4.61999 533.72 4.70999 533.38 4.79999C531.8 5.20999 530.22 5.63999 528.65 6.10999C528.58 6.12999 528.51 6.14999 528.44 6.16999C526.95 6.60999 525.47 7.08999 523.99 7.57999C523.61 7.69999 523.24 7.82999 522.86 7.95999C521.35 8.47999 519.85 9.00999 518.36 9.57999C518.12 9.66999 517.88 9.76999 517.64 9.85999C516.34 10.36 515.05 10.88 513.77 11.42C513.37 11.59 512.97 11.75 512.57 11.93C511.14 12.54 509.71 13.18 508.3 13.84C507.95 14 507.61 14.17 507.26 14.34C506.1 14.89 504.95 15.46 503.8 16.04C503.38 16.25 502.97 16.46 502.55 16.68C501.19 17.39 499.84 18.12 498.5 18.87C498.09 19.1 497.67 19.34 497.26 19.58C496.2 20.19 495.14 20.82 494.09 21.46C493.68 21.71 493.27 21.95 492.87 22.2C491.57 23.01 490.29 23.84 489.01 24.69C488.57 24.98 488.14 25.28 487.71 25.57C486.68 26.27 485.67 26.98 484.65 27.71C484.29 27.97 483.92 28.22 483.57 28.49C482.32 29.41 481.07 30.36 479.84 31.32C479.43 31.64 479.02 31.97 478.61 32.3C477.55 33.15 476.49 34.02 475.45 34.9C475.2 35.11 474.95 35.31 474.7 35.53C473.46 36.59 472.24 37.68 471.03 38.79C470.68 39.11 470.34 39.43 470 39.75C468.78 40.89 467.57 42.04 466.38 43.23C466.36 43.25 466.34 43.27 466.31 43.29C466.31 43.29 466.3 43.3 466.29 43.31C466.29 43.31 466.28 43.32 466.27 43.33C466.25 43.35 466.22 43.38 466.2 43.41C465.02 44.6 463.87 45.8 462.73 47.01C462.41 47.36 462.09 47.7 461.77 48.05C460.66 49.26 459.57 50.48 458.51 51.71C458.29 51.96 458.09 52.22 457.87 52.47C456.99 53.51 456.13 54.56 455.28 55.62C454.95 56.03 454.62 56.45 454.29 56.86C453.33 58.09 452.38 59.33 451.46 60.58C451.2 60.94 450.94 61.31 450.68 61.67C449.95 62.68 449.24 63.69 448.55 64.72C448.25 65.16 447.95 65.59 447.66 66.03C446.81 67.31 445.98 68.59 445.18 69.88C444.93 70.29 444.68 70.7 444.43 71.11C443.79 72.16 443.17 73.21 442.56 74.27C442.32 74.69 442.08 75.1 441.84 75.52C441.09 76.86 440.36 78.21 439.65 79.56C439.43 79.98 439.22 80.4 439.01 80.82C438.43 81.96 437.86 83.11 437.31 84.26C437.14 84.61 436.97 84.96 436.81 85.31C436.15 86.72 435.52 88.15 434.91 89.58C434.74 89.98 434.57 90.39 434.4 90.79C433.87 92.07 433.35 93.35 432.85 94.64C432.76 94.88 432.66 95.13 432.56 95.37C431.99 96.86 431.46 98.36 430.95 99.87C430.82 100.25 430.7 100.62 430.57 101C430.08 102.48 429.6 103.96 429.16 105.44C429.14 105.51 429.11 105.59 429.09 105.66C428.62 107.23 428.19 108.8 427.78 110.38C427.69 110.73 427.6 111.08 427.51 111.43C427.11 113.02 426.72 114.62 426.37 116.22C426.37 116.22 426.37 116.24 426.37 116.25C426.02 117.85 425.71 119.45 425.41 121.06C425.35 121.39 425.29 121.72 425.23 122.05C424.95 123.66 424.68 125.28 424.45 126.9C424.43 127.02 424.42 127.15 424.4 127.27C424.19 128.79 424 130.32 423.84 131.84C423.81 132.16 423.77 132.48 423.74 132.79C423.58 134.4 423.43 136.02 423.32 137.64C423.3 137.86 423.29 138.09 423.28 138.31C423.19 139.76 423.12 141.21 423.07 142.66C423.06 142.98 423.04 143.31 423.03 143.63C422.99 145.22 422.96 146.8 422.97 148.39C422.97 148.72 422.97 149.05 422.98 149.39C422.99 150.74 423.03 152.1 423.08 153.45C423.09 153.8 423.1 154.16 423.12 154.51C423.19 156.05 423.28 157.58 423.4 159.11C423.43 159.55 423.47 159.99 423.51 160.43C423.62 161.67 423.74 162.91 423.87 164.15C423.91 164.56 423.95 164.96 424 165.36C424.17 166.82 424.37 168.28 424.59 169.74C424.67 170.29 424.76 170.85 424.85 171.4C425.03 172.5 425.22 173.61 425.42 174.71C425.53 175.29 425.63 175.86 425.74 176.44C425.99 177.71 426.26 178.98 426.54 180.25C426.69 180.91 426.84 181.57 427 182.24C427.23 183.19 427.46 184.13 427.71 185.08C427.96 186.05 428.22 187.02 428.5 187.99C428.75 188.86 428.99 189.74 429.26 190.6C429.49 191.36 429.72 192.12 429.97 192.88C430.22 193.64 430.46 194.39 430.72 195.15C431.14 196.4 431.58 197.64 432.03 198.88C432.26 199.5 432.49 200.12 432.72 200.74C433.04 201.59 433.37 202.44 433.71 203.28C433.92 203.79 434.14 204.31 434.35 204.82C434.69 205.63 435.01 206.45 435.36 207.26C435.36 207.26 435.37 207.26 435.38 207.25C437.1 211.17 439 215.03 441.07 218.82C442.57 217.09 444.12 215.38 445.78 213.72C462.18 197.32 482.27 189.01 505.52 189.01L505.55 189.03Z" fill="white"/>
</g>
<path d="M3.85806 213.296H109.955C111.241 213.296 112.351 213.764 113.287 214.699C114.163 215.576 114.602 216.658 114.602 217.944V237.322C114.602 238.608 114.134 239.689 113.199 240.566C112.322 241.501 111.241 241.969 109.955 241.969H78.5641C77.9795 241.969 77.4534 242.203 76.9858 242.67C76.5182 243.08 76.2843 243.606 76.2843 244.249V328.775C76.2843 330.061 75.8167 331.143 74.8814 332.019C74.0046 332.955 72.9232 333.422 71.6371 333.422H48.6641C47.3781 333.422 46.2675 332.955 45.3322 332.019C44.4554 331.143 44.0169 330.061 44.0169 328.775V244.249C44.0169 243.606 43.7831 243.08 43.3155 242.67C42.8478 242.203 42.3217 241.969 41.7372 241.969H10.4343C9.14828 241.969 8.03762 241.501 7.10233 240.566C6.2255 239.689 5.78709 238.608 5.78709 237.322V228.115C5.78709 225.484 4.8518 223.234 2.98123 221.363C2.57204 220.954 2.16285 220.603 1.75366 220.311C0.584554 219.551 0 218.499 0 217.155C0 216.102 0.37996 215.196 1.13988 214.436C1.8998 213.676 2.80586 213.296 3.85806 213.296Z" fill="white"/>
<path d="M129.946 304.487C134.272 308.813 139.475 310.976 145.554 310.976C151.575 310.976 156.748 308.813 161.074 304.487C165.341 300.103 167.475 294.842 167.475 288.704C167.475 282.566 165.341 277.305 161.074 272.921C156.748 268.595 151.575 266.432 145.554 266.432C139.475 266.432 134.272 268.595 129.946 272.921C125.679 277.305 123.546 282.566 123.546 288.704C123.546 294.842 125.679 300.103 129.946 304.487ZM171.245 243.635H190.36C191.588 243.635 192.64 244.073 193.517 244.95C194.394 245.827 194.832 246.879 194.832 248.107V328.951C194.832 330.178 194.394 331.23 193.517 332.107C192.64 332.984 191.588 333.422 190.36 333.422H171.245C170.018 333.422 168.965 332.984 168.089 332.107C167.212 331.23 166.773 330.178 166.773 328.951V325.092C158.823 331.756 149.938 335.088 140.118 335.088C128.251 335.088 117.934 330.558 109.166 321.497C100.28 312.32 95.8377 301.389 95.8377 288.704C95.8377 276.019 100.28 265.088 109.166 255.91C117.934 246.85 128.251 242.32 140.118 242.32C149.938 242.32 158.823 245.652 166.773 252.315V248.107C166.773 246.879 167.212 245.827 168.089 244.95C168.965 244.073 170.018 243.635 171.245 243.635Z" fill="white"/>
<path d="M302.068 326.934C302.711 327.518 303.15 328.132 303.384 328.775C303.676 329.418 303.822 330.003 303.822 330.529C303.822 331.581 303.53 332.312 302.945 332.721C302.361 333.13 301.455 333.335 300.227 333.335H273.922C273.162 333.335 272.402 333.042 271.642 332.458C271.175 332.049 260.74 320.007 240.34 296.332V328.951C240.34 330.178 239.901 331.23 239.024 332.107C238.147 332.984 237.095 333.422 235.868 333.422H216.665C215.437 333.422 214.385 332.984 213.508 332.107C212.69 331.23 212.281 330.178 212.281 328.951V226.274C212.222 223.994 211.404 222.036 209.826 220.399C209.475 220.048 209.095 219.727 208.686 219.434C207.692 218.733 207.195 217.827 207.195 216.716C207.195 215.781 207.517 214.992 208.16 214.349C208.861 213.647 209.68 213.296 210.615 213.296H235.868C237.095 213.296 238.147 213.735 239.024 214.612C239.901 215.489 240.34 216.541 240.34 217.768V265.468L262.874 245.652C264.102 244.307 265.563 243.635 267.258 243.635H292.862C295.492 243.635 296.807 244.658 296.807 246.704C296.807 247.171 296.72 247.581 296.544 247.931C296.369 248.282 296.018 248.75 295.492 249.334L259.805 280.023L302.068 326.934Z" fill="white"/>
<path d="M377.476 261.785H422.107C423.393 261.785 424.503 262.253 425.439 263.188C426.315 264.123 426.754 265.205 426.754 266.432V307.556C426.754 308.316 426.579 309.017 426.228 309.66C420.324 318.429 412.754 325.297 403.518 330.266C393.99 335.468 383.76 338.07 372.829 338.07C355 338.07 339.801 331.756 327.234 319.13C314.607 306.562 308.294 291.364 308.294 273.535C308.294 255.706 314.607 240.478 327.234 227.852C339.801 215.284 355 209 372.829 209C389.489 209 403.985 214.67 416.32 226.011C417.138 226.946 417.547 227.998 417.547 229.167C417.489 230.395 417.021 231.418 416.144 232.236L400.098 247.581C399.338 248.341 398.374 248.75 397.205 248.808C396.094 248.867 395.1 248.545 394.223 247.844C388.027 242.641 380.896 240.04 372.829 240.04C363.593 240.04 355.731 243.313 349.242 249.86C342.695 256.407 339.421 264.299 339.421 273.535C339.421 282.771 342.695 290.633 349.242 297.122C355.731 303.669 363.593 306.942 372.829 306.942C381.305 306.942 388.699 304.136 395.013 298.524C395.422 298.057 395.626 297.531 395.626 296.946V291.422C395.626 290.838 395.422 290.312 395.013 289.844C394.545 289.376 393.99 289.142 393.347 289.142H377.476C376.19 289.142 375.109 288.675 374.232 287.739C373.296 286.863 372.829 285.781 372.829 284.495V266.432C372.829 265.146 373.296 264.065 374.232 263.188C375.167 262.253 376.248 261.785 377.476 261.785Z" fill="white"/>
<path d="M509.176 261.785H553.807C555.093 261.785 556.203 262.253 557.139 263.188C558.016 264.123 558.454 265.205 558.454 266.432V307.556C558.454 308.316 558.279 309.017 557.928 309.66C552.024 318.429 544.454 325.297 535.218 330.266C525.69 335.468 515.46 338.07 504.529 338.07C486.7 338.07 471.502 331.756 458.934 319.13C446.307 306.562 439.994 291.364 439.994 273.535C439.994 255.706 446.307 240.478 458.934 227.852C471.502 215.284 486.7 209 504.529 209C521.189 209 535.686 214.67 548.02 226.011C548.838 226.946 549.247 227.998 549.247 229.167C549.189 230.395 548.721 231.418 547.844 232.236L531.798 247.581C531.038 248.341 530.074 248.75 528.905 248.808C527.794 248.867 526.8 248.545 525.924 247.844C519.727 242.641 512.596 240.04 504.529 240.04C495.293 240.04 487.431 243.313 480.942 249.86C474.395 256.407 471.122 264.299 471.122 273.535C471.122 282.771 474.395 290.633 480.942 297.122C487.431 303.669 495.293 306.942 504.529 306.942C513.005 306.942 520.399 304.136 526.713 298.524C527.122 298.057 527.326 297.531 527.326 296.946V291.422C527.326 290.838 527.122 290.312 526.713 289.844C526.245 289.376 525.69 289.142 525.047 289.142H509.176C507.89 289.142 506.809 288.675 505.932 287.739C504.996 286.863 504.529 285.781 504.529 284.495V266.432C504.529 265.146 504.996 264.065 505.932 263.188C506.867 262.253 507.948 261.785 509.176 261.785Z" fill="white"/>
<defs>
<clipPath id="clip0_14_36">
<rect width="338.06" height="338.1" fill="white" transform="translate(423)"/>
</clipPath>
</defs>
</svg>
