<svg width="1080" height="1080" viewBox="0 0 1080 1080" fill="none" xmlns="http://www.w3.org/2000/svg">
<path fill-rule="evenodd" clip-rule="evenodd" d="M822.656 0C978.75 0 1080 101.25 1080 257.344V822.656C1080 978.75 978.75 1080 822.656 1080H257.344C101.25 1080 0 978.75 0 822.656V257.344C0 101.25 101.25 0 257.344 0H822.656Z" fill="url(#paint0_linear_14_64)"/>
<g clip-path="url(#clip0_14_64)">
<path d="M943.989 624.85C943.777 618.615 940.978 612.804 936.291 608.743L889.656 568.343C879.859 559.807 879.297 544.75 888.469 535.578L895.329 528.717C902.169 521.878 907.778 514.02 912.041 505.527C918.244 493.163 921.594 479.421 921.594 465.36V463.473C921.594 461.299 921.52 459.136 921.382 457.036C921.382 457.036 921.361 457.036 921.351 457.047C920.364 443.368 916.261 430.209 909.474 418.45V418.376L747.345 580.495C750.017 584.683 751.449 589.529 751.449 594.544V638.146C751.449 641.317 750.855 644.466 749.731 647.414C759.263 646.248 768.51 643.565 777.12 639.493C786.345 635.135 794.849 629.186 802.208 621.838L809.069 614.978C818.241 605.805 833.298 606.367 841.834 616.165L882.234 662.8C886.295 667.487 892.106 670.286 898.341 670.498C898.616 670.498 898.892 670.498 899.168 670.498C899.274 670.498 899.39 670.498 899.496 670.498C905.318 670.392 910.864 668.049 915.01 663.903L926.546 652.355L937.404 641.497C941.54 637.362 943.894 631.805 944 625.984C944 625.602 944 625.21 944 624.828L943.989 624.85Z" fill="white"/>
<path d="M673.067 512.44C696.14 512.44 716.478 520.393 733.539 536.076L734.388 536.861L735.151 537.73C739.255 542.428 741.556 548.376 741.672 554.537L795.04 501.158L895.754 400.445L895.33 400.021L853.244 357.946C839.003 343.705 822.705 332.773 805.305 325.159C805.305 325.159 805.305 325.149 805.315 325.138C804.467 324.767 803.598 324.427 802.749 324.067C802.198 323.834 801.646 323.6 801.095 323.378C800.204 323.017 799.303 322.667 798.412 322.328C797.755 322.073 797.098 321.83 796.429 321.596C795.115 321.119 793.8 320.653 792.485 320.207C791.679 319.932 790.873 319.666 790.067 319.412C789.261 319.157 788.456 318.903 787.65 318.67C786.727 318.394 785.805 318.129 784.872 317.864C783.843 317.578 782.814 317.302 781.786 317.026C780.789 316.772 779.782 316.517 778.774 316.273C778.075 316.104 777.375 315.945 776.675 315.786C775.328 315.489 773.971 315.202 772.624 314.927C772.02 314.81 771.416 314.704 770.811 314.587C769.645 314.375 768.468 314.174 767.291 313.983C766.708 313.887 766.124 313.792 765.541 313.707C763.993 313.474 762.445 313.262 760.897 313.082C760.473 313.029 760.038 312.986 759.614 312.944C758.299 312.795 756.984 312.668 755.659 312.562C755.192 312.52 754.725 312.477 754.259 312.445C752.636 312.318 751.004 312.223 749.371 312.148C748.999 312.127 748.628 312.127 748.257 312.106C746.815 312.053 745.384 312.021 743.942 312C743.592 312 743.242 311.989 742.892 311.989C741.206 311.989 739.52 312.011 737.834 312.053C737.495 312.053 737.145 312.074 736.805 312.095C735.268 312.148 733.73 312.223 732.193 312.318C731.959 312.329 731.726 312.339 731.493 312.361C729.775 312.477 728.057 312.626 726.35 312.806C726.011 312.838 725.682 312.88 725.343 312.912C723.72 313.092 722.098 313.283 720.476 313.506C720.348 313.527 720.221 313.538 720.094 313.559C718.376 313.803 716.658 314.089 714.941 314.386C714.591 314.449 714.251 314.513 713.901 314.577C712.194 314.895 710.487 315.224 708.79 315.595C708.79 315.595 708.78 315.595 708.769 315.595C707.062 315.966 705.376 316.379 703.68 316.803C703.308 316.899 702.937 316.994 702.577 317.09C700.901 317.525 699.226 317.98 697.561 318.479C697.487 318.5 697.413 318.521 697.339 318.542C695.759 319.009 694.189 319.518 692.62 320.038C692.217 320.165 691.825 320.303 691.422 320.441C689.821 320.992 688.23 321.554 686.65 322.158C686.396 322.254 686.141 322.36 685.887 322.455C684.508 322.985 683.14 323.537 681.783 324.109C681.359 324.29 680.935 324.459 680.511 324.65C678.994 325.297 677.478 325.976 675.983 326.675C675.612 326.845 675.251 327.025 674.88 327.206C673.65 327.789 672.431 328.393 671.211 329.008C670.766 329.231 670.331 329.454 669.886 329.687C668.444 330.44 667.012 331.214 665.591 332.009C665.157 332.253 664.711 332.507 664.276 332.762C663.152 333.409 662.028 334.077 660.915 334.755C660.48 335.02 660.046 335.275 659.621 335.54C658.243 336.399 656.886 337.279 655.528 338.18C655.062 338.488 654.606 338.806 654.15 339.114C653.058 339.856 651.987 340.609 650.905 341.383C650.524 341.658 650.131 341.923 649.76 342.21C648.435 343.185 647.109 344.193 645.805 345.211C645.37 345.55 644.935 345.9 644.501 346.25C643.377 347.151 642.253 348.074 641.15 349.007C640.885 349.229 640.62 349.441 640.355 349.675C639.04 350.799 637.746 351.954 636.463 353.132C636.092 353.471 635.731 353.81 635.371 354.149C634.077 355.358 632.794 356.578 631.532 357.84C631.511 357.861 631.49 357.882 631.458 357.903C631.458 357.903 631.448 357.914 631.437 357.924C631.437 357.924 631.426 357.935 631.416 357.946C631.395 357.967 631.363 357.999 631.342 358.03C630.09 359.292 628.871 360.565 627.662 361.848C627.323 362.219 626.983 362.579 626.644 362.95C625.467 364.234 624.311 365.527 623.187 366.831C622.954 367.096 622.742 367.372 622.509 367.637C621.576 368.74 620.664 369.853 619.762 370.977C619.412 371.412 619.063 371.858 618.713 372.292C617.695 373.597 616.687 374.911 615.712 376.237C615.436 376.619 615.16 377.011 614.885 377.393C614.111 378.464 613.358 379.535 612.626 380.627C612.308 381.093 611.99 381.549 611.682 382.016C610.781 383.373 609.901 384.73 609.053 386.098C608.788 386.533 608.523 386.968 608.257 387.402C607.579 388.516 606.921 389.629 606.275 390.753C606.02 391.199 605.766 391.633 605.511 392.079C604.716 393.5 603.942 394.931 603.189 396.363C602.956 396.808 602.733 397.253 602.51 397.699C601.895 398.907 601.291 400.127 600.708 401.346C600.527 401.717 600.347 402.088 600.177 402.46C599.478 403.955 598.81 405.471 598.163 406.987C597.983 407.411 597.802 407.846 597.622 408.27C597.06 409.628 596.509 410.985 595.978 412.353C595.883 412.607 595.777 412.872 595.671 413.127C595.067 414.707 594.505 416.297 593.964 417.898C593.826 418.301 593.699 418.694 593.561 419.097C593.041 420.666 592.532 422.235 592.066 423.805C592.044 423.879 592.013 423.964 591.991 424.038C591.493 425.703 591.037 427.368 590.602 429.043C590.507 429.414 590.412 429.785 590.316 430.156C589.892 431.842 589.478 433.539 589.107 435.235C589.107 435.235 589.107 435.257 589.107 435.267C588.736 436.964 588.407 438.66 588.089 440.368C588.026 440.717 587.962 441.067 587.898 441.417C587.602 443.125 587.315 444.842 587.071 446.56C587.05 446.687 587.04 446.825 587.018 446.952C586.796 448.564 586.594 450.187 586.425 451.798C586.393 452.138 586.35 452.477 586.319 452.806C586.149 454.513 585.99 456.231 585.873 457.948C585.852 458.182 585.841 458.426 585.831 458.659C585.735 460.196 585.661 461.734 585.608 463.271C585.597 463.611 585.576 463.961 585.566 464.3C585.523 465.986 585.491 467.661 585.502 469.347C585.502 469.697 585.502 470.047 585.513 470.408C585.523 471.839 585.566 473.281 585.619 474.713C585.629 475.084 585.64 475.466 585.661 475.837C585.735 477.47 585.831 479.092 585.958 480.714C585.99 481.181 586.032 481.648 586.075 482.114C586.191 483.429 586.319 484.744 586.456 486.059C586.499 486.493 586.541 486.918 586.594 487.342C586.774 488.89 586.987 490.438 587.22 491.986C587.305 492.569 587.4 493.163 587.496 493.746C587.686 494.913 587.888 496.09 588.1 497.256C588.217 497.871 588.323 498.475 588.439 499.09C588.704 500.437 588.991 501.784 589.288 503.13C589.447 503.83 589.606 504.53 589.775 505.241C590.019 506.248 590.263 507.245 590.528 508.252C590.793 509.281 591.069 510.309 591.366 511.338C591.631 512.26 591.885 513.193 592.172 514.105C592.416 514.911 592.66 515.717 592.925 516.523C593.19 517.329 593.444 518.124 593.72 518.93C594.165 520.255 594.632 521.57 595.109 522.885C595.353 523.542 595.597 524.2 595.841 524.857C596.18 525.759 596.53 526.66 596.89 527.551C597.113 528.091 597.346 528.643 597.569 529.184C597.93 530.042 598.269 530.912 598.64 531.771C598.64 531.771 598.651 531.771 598.661 531.76C600.485 535.917 602.5 540.01 604.695 544.029C606.285 542.194 607.929 540.381 609.689 538.621C627.079 521.231 648.382 512.419 673.035 512.419L673.067 512.44Z" fill="white"/>
</g>
<path d="M141.091 538.172H253.592C254.956 538.172 256.133 538.668 257.125 539.659C258.055 540.589 258.52 541.736 258.52 543.099V563.647C258.52 565.011 258.024 566.157 257.032 567.087C256.102 568.079 254.956 568.575 253.592 568.575H220.306C219.687 568.575 219.129 568.823 218.633 569.319C218.137 569.753 217.889 570.31 217.889 570.992V660.621C217.889 661.985 217.393 663.131 216.401 664.061C215.472 665.053 214.325 665.549 212.961 665.549H188.602C187.238 665.549 186.06 665.053 185.069 664.061C184.139 663.131 183.674 661.985 183.674 660.621V570.992C183.674 570.31 183.426 569.753 182.93 569.319C182.434 568.823 181.876 568.575 181.257 568.575H148.064C146.7 568.575 145.523 568.079 144.531 567.087C143.601 566.157 143.136 565.011 143.136 563.647V553.885C143.136 551.095 142.145 548.709 140.161 546.726C139.727 546.292 139.293 545.92 138.86 545.61C137.62 544.804 137 543.688 137 542.263C137 541.147 137.403 540.186 138.209 539.38C139.014 538.575 139.975 538.172 141.091 538.172Z" fill="white"/>
<path d="M274.79 634.867C279.377 639.454 284.894 641.747 291.34 641.747C297.724 641.747 303.21 639.454 307.797 634.867C312.322 630.218 314.584 624.639 314.584 618.131C314.584 611.623 312.322 606.044 307.797 601.395C303.21 596.809 297.724 594.515 291.34 594.515C284.894 594.515 279.377 596.809 274.79 601.395C270.266 606.044 268.003 611.623 268.003 618.131C268.003 624.639 270.266 630.218 274.79 634.867ZM318.582 570.341H338.851C340.153 570.341 341.268 570.806 342.198 571.736C343.128 572.666 343.593 573.782 343.593 575.083V660.807C343.593 662.109 343.128 663.224 342.198 664.154C341.268 665.084 340.153 665.549 338.851 665.549H318.582C317.28 665.549 316.165 665.084 315.235 664.154C314.305 663.224 313.84 662.109 313.84 660.807V656.716C305.41 663.782 295.989 667.315 285.576 667.315C272.993 667.315 262.053 662.512 252.755 652.904C243.334 643.173 238.623 631.582 238.623 618.131C238.623 604.681 243.334 593.09 252.755 583.358C262.053 573.751 272.993 568.947 285.576 568.947C295.989 568.947 305.41 572.48 313.84 579.546V575.083C313.84 573.782 314.305 572.666 315.235 571.736C316.165 570.806 317.28 570.341 318.582 570.341Z" fill="white"/>
<path d="M457.302 658.669C457.984 659.288 458.449 659.939 458.697 660.621C459.007 661.303 459.162 661.923 459.162 662.481C459.162 663.596 458.852 664.371 458.232 664.805C457.612 665.239 456.651 665.456 455.35 665.456H427.457C426.651 665.456 425.845 665.146 425.04 664.526C424.544 664.092 413.48 651.323 391.847 626.22V660.807C391.847 662.109 391.382 663.224 390.453 664.154C389.523 665.084 388.407 665.549 387.105 665.549H366.744C365.442 665.549 364.326 665.084 363.397 664.154C362.529 663.224 362.095 662.109 362.095 660.807V551.932C362.033 549.515 361.165 547.438 359.492 545.703C359.12 545.331 358.717 544.99 358.283 544.68C357.229 543.936 356.702 542.975 356.702 541.798C356.702 540.806 357.043 539.969 357.725 539.287C358.469 538.544 359.337 538.172 360.328 538.172H387.105C388.407 538.172 389.523 538.637 390.453 539.566C391.382 540.496 391.847 541.612 391.847 542.914V593.492L415.742 572.48C417.044 571.054 418.593 570.341 420.391 570.341H447.54C450.329 570.341 451.724 571.426 451.724 573.596C451.724 574.091 451.631 574.525 451.445 574.897C451.259 575.269 450.887 575.765 450.329 576.385L412.488 608.926L457.302 658.669Z" fill="white"/>
<path d="M537.262 589.587H584.586C585.95 589.587 587.128 590.083 588.119 591.075C589.049 592.067 589.514 593.214 589.514 594.515V638.121C589.514 638.927 589.328 639.671 588.956 640.352C582.696 649.65 574.669 656.933 564.875 662.202C554.772 667.718 543.925 670.477 532.334 670.477C513.429 670.477 497.313 663.782 483.986 650.394C470.598 637.067 463.904 620.951 463.904 602.046C463.904 583.141 470.598 566.994 483.986 553.606C497.313 540.279 513.429 533.616 532.334 533.616C549.999 533.616 565.371 539.628 578.45 551.653C579.318 552.645 579.752 553.761 579.752 555C579.69 556.302 579.194 557.387 578.264 558.255L561.249 574.525C560.444 575.331 559.421 575.765 558.181 575.827C557.003 575.889 555.95 575.548 555.02 574.804C548.45 569.288 540.888 566.529 532.334 566.529C522.54 566.529 514.204 570.001 507.323 576.943C500.381 583.885 496.91 592.253 496.91 602.046C496.91 611.84 500.381 620.177 507.323 627.057C514.204 633.999 522.54 637.47 532.334 637.47C541.322 637.47 549.163 634.495 555.857 628.544C556.291 628.049 556.508 627.491 556.508 626.871V621.013C556.508 620.393 556.291 619.836 555.857 619.34C555.361 618.844 554.772 618.596 554.09 618.596H537.262C535.898 618.596 534.751 618.1 533.822 617.108C532.83 616.179 532.334 615.032 532.334 613.668V594.515C532.334 593.152 532.83 592.005 533.822 591.075C534.813 590.083 535.96 589.587 537.262 589.587Z" fill="white"/>
<path d="M676.912 589.587H724.236C725.6 589.587 726.778 590.083 727.769 591.075C728.699 592.067 729.164 593.214 729.164 594.515V638.121C729.164 638.927 728.978 639.671 728.606 640.352C722.346 649.65 714.319 656.933 704.525 662.202C694.422 667.718 683.575 670.477 671.984 670.477C653.079 670.477 636.963 663.782 623.636 650.394C610.248 637.067 603.553 620.951 603.553 602.046C603.553 583.141 610.248 566.994 623.636 553.606C636.963 540.279 653.079 533.616 671.984 533.616C689.649 533.616 705.021 539.628 718.1 551.653C718.968 552.645 719.402 553.761 719.402 555C719.34 556.302 718.844 557.387 717.914 558.255L700.899 574.525C700.094 575.331 699.071 575.765 697.831 575.827C696.653 575.889 695.6 575.548 694.67 574.804C688.1 569.288 680.538 566.529 671.984 566.529C662.19 566.529 653.853 570.001 646.973 576.943C640.031 583.885 636.56 592.253 636.56 602.046C636.56 611.84 640.031 620.177 646.973 627.057C653.853 633.999 662.19 637.47 671.984 637.47C680.971 637.47 688.812 634.495 695.507 628.544C695.941 628.049 696.158 627.491 696.158 626.871V621.013C696.158 620.393 695.941 619.836 695.507 619.34C695.011 618.844 694.422 618.596 693.74 618.596H676.912C675.548 618.596 674.401 618.1 673.471 617.108C672.48 616.179 671.984 615.032 671.984 613.668V594.515C671.984 593.152 672.48 592.005 673.471 591.075C674.463 590.083 675.61 589.587 676.912 589.587Z" fill="white"/>
<defs>
<linearGradient id="paint0_linear_14_64" x1="540" y1="0" x2="540" y2="1080" gradientUnits="userSpaceOnUse">
<stop stop-color="#1A4063"/>
<stop offset="1" stop-color="#052038"/>
</linearGradient>
<clipPath id="clip0_14_64">
<rect width="358.466" height="358.509" fill="white" transform="translate(585.534 312)"/>
</clipPath>
</defs>
</svg>
